# xmcd CD database file
#
# Track frame offsets:
#	150
#	17660
#	36000
#	53487
#
# Disc length: 955 seconds
#
# Revision: 1
# Processed by: cddbd v1.5.1PL2 Copyright (c) Steve Scherf et al.
# Submitted via: CDex 1.51
#
DISCID=2303b904
DTITLE=ダイナマイトＳＨＵ - 強ing! Going! My SOU!!
DYEAR=2006
DGENRE=Anime
TTITLE0=強ing! Going! My SOU!!
TTITLE1=TOMORROW
TTITLE2=強ing! Going! My SOU!!(instrumental)
TTITLE3=TOMORROW(instrumental)
EXTD=YEAR: 2006
EXTT0=
EXTT1=
EXTT2=
EXTT3=
PLAYORDER=
